solid OpenSCAD_Model
  facet normal -1 0 0
    outer loop
      vertex 2.5 -70.5 -0.2
      vertex 2.5 -67.5 0.2
      vertex 2.5 -67.5 -0.2
    endloop
  endfacet
  facet normal -1 -0 0
    outer loop
      vertex 2.5 -67.5 0.2
      vertex 2.5 -70.5 -0.2
      vertex 2.5 -70.5 0.2
    endloop
  endfacet
  facet normal 1 -0 0
    outer loop
      vertex -2.5 -70.5 0.2
      vertex -2.5 -67.5 -0.2
      vertex -2.5 -67.5 0.2
    endloop
  endfacet
  facet normal 1 0 0
    outer loop
      vertex -2.5 -67.5 -0.2
      vertex -2.5 -70.5 0.2
      vertex -2.5 -70.5 -0.2
    endloop
  endfacet
  facet normal 0 -1 0
    outer loop
      vertex -2.5 -67.5 -0.2
      vertex 2.5 -67.5 0.2
      vertex -2.5 -67.5 0.2
    endloop
  endfacet
  facet normal 0 -1 -0
    outer loop
      vertex 2.5 -67.5 0.2
      vertex -2.5 -67.5 -0.2
      vertex 2.5 -67.5 -0.2
    endloop
  endfacet
  facet normal 0 1 -0
    outer loop
      vertex 2.5 -70.5 -0.2
      vertex -2.5 -70.5 0.2
      vertex 2.5 -70.5 0.2
    endloop
  endfacet
  facet normal 0 1 0
    outer loop
      vertex -2.5 -70.5 0.2
      vertex 2.5 -70.5 -0.2
      vertex -2.5 -70.5 -0.2
    endloop
  endfacet
  facet normal -1 0 0
    outer loop
      vertex 2.5 -61.9737 -0.2
      vertex 2.5 -58.9737 0.2
      vertex 2.5 -58.9737 -0.2
    endloop
  endfacet
  facet normal -1 -0 0
    outer loop
      vertex 2.5 -58.9737 0.2
      vertex 2.5 -61.9737 -0.2
      vertex 2.5 -61.9737 0.2
    endloop
  endfacet
  facet normal 1 -0 0
    outer loop
      vertex -2.5 -61.9737 0.2
      vertex -2.5 -58.9737 -0.2
      vertex -2.5 -58.9737 0.2
    endloop
  endfacet
  facet normal 1 0 0
    outer loop
      vertex -2.5 -58.9737 -0.2
      vertex -2.5 -61.9737 0.2
      vertex -2.5 -61.9737 -0.2
    endloop
  endfacet
  facet normal 0 -1 0
    outer loop
      vertex -2.5 -58.9737 -0.2
      vertex 2.5 -58.9737 0.2
      vertex -2.5 -58.9737 0.2
    endloop
  endfacet
  facet normal 0 -1 -0
    outer loop
      vertex 2.5 -58.9737 0.2
      vertex -2.5 -58.9737 -0.2
      vertex 2.5 -58.9737 -0.2
    endloop
  endfacet
  facet normal 0 1 -0
    outer loop
      vertex 2.5 -61.9737 -0.2
      vertex -2.5 -61.9737 0.2
      vertex 2.5 -61.9737 0.2
    endloop
  endfacet
  facet normal 0 1 0
    outer loop
      vertex -2.5 -61.9737 0.2
      vertex 2.5 -61.9737 -0.2
      vertex -2.5 -61.9737 -0.2
    endloop
  endfacet
  facet normal -1 0 0
    outer loop
      vertex 2.5 -53.4474 -0.2
      vertex 2.5 -50.4474 0.2
      vertex 2.5 -50.4474 -0.2
    endloop
  endfacet
  facet normal -1 -0 0
    outer loop
      vertex 2.5 -50.4474 0.2
      vertex 2.5 -53.4474 -0.2
      vertex 2.5 -53.4474 0.2
    endloop
  endfacet
  facet normal 1 -0 0
    outer loop
      vertex -2.5 -53.4474 0.2
      vertex -2.5 -50.4474 -0.2
      vertex -2.5 -50.4474 0.2
    endloop
  endfacet
  facet normal 1 0 0
    outer loop
      vertex -2.5 -50.4474 -0.2
      vertex -2.5 -53.4474 0.2
      vertex -2.5 -53.4474 -0.2
    endloop
  endfacet
  facet normal 0 -1 0
    outer loop
      vertex -2.5 -50.4474 -0.2
      vertex 2.5 -50.4474 0.2
      vertex -2.5 -50.4474 0.2
    endloop
  endfacet
  facet normal 0 -1 -0
    outer loop
      vertex 2.5 -50.4474 0.2
      vertex -2.5 -50.4474 -0.2
      vertex 2.5 -50.4474 -0.2
    endloop
  endfacet
  facet normal 0 1 -0
    outer loop
      vertex 2.5 -53.4474 -0.2
      vertex -2.5 -53.4474 0.2
      vertex 2.5 -53.4474 0.2
    endloop
  endfacet
  facet normal 0 1 0
    outer loop
      vertex -2.5 -53.4474 0.2
      vertex 2.5 -53.4474 -0.2
      vertex -2.5 -53.4474 -0.2
    endloop
  endfacet
  facet normal -1 0 0
    outer loop
      vertex 2.5 -44.9211 -0.2
      vertex 2.5 -41.9211 0.2
      vertex 2.5 -41.9211 -0.2
    endloop
  endfacet
  facet normal -1 -0 0
    outer loop
      vertex 2.5 -41.9211 0.2
      vertex 2.5 -44.9211 -0.2
      vertex 2.5 -44.9211 0.2
    endloop
  endfacet
  facet normal 1 -0 0
    outer loop
      vertex -2.5 -44.9211 0.2
      vertex -2.5 -41.9211 -0.2
      vertex -2.5 -41.9211 0.2
    endloop
  endfacet
  facet normal 1 0 0
    outer loop
      vertex -2.5 -41.9211 -0.2
      vertex -2.5 -44.9211 0.2
      vertex -2.5 -44.9211 -0.2
    endloop
  endfacet
  facet normal 0 -1 0
    outer loop
      vertex -2.5 -41.9211 -0.2
      vertex 2.5 -41.9211 0.2
      vertex -2.5 -41.9211 0.2
    endloop
  endfacet
  facet normal 0 -1 -0
    outer loop
      vertex 2.5 -41.9211 0.2
      vertex -2.5 -41.9211 -0.2
      vertex 2.5 -41.9211 -0.2
    endloop
  endfacet
  facet normal 0 1 -0
    outer loop
      vertex 2.5 -44.9211 -0.2
      vertex -2.5 -44.9211 0.2
      vertex 2.5 -44.9211 0.2
    endloop
  endfacet
  facet normal 0 1 0
    outer loop
      vertex -2.5 -44.9211 0.2
      vertex 2.5 -44.9211 -0.2
      vertex -2.5 -44.9211 -0.2
    endloop
  endfacet
  facet normal -1 0 0
    outer loop
      vertex 2.5 -36.3947 -0.2
      vertex 2.5 -33.3947 0.2
      vertex 2.5 -33.3947 -0.2
    endloop
  endfacet
  facet normal -1 -0 0
    outer loop
      vertex 2.5 -33.3947 0.2
      vertex 2.5 -36.3947 -0.2
      vertex 2.5 -36.3947 0.2
    endloop
  endfacet
  facet normal 1 -0 0
    outer loop
      vertex -2.5 -36.3947 0.2
      vertex -2.5 -33.3947 -0.2
      vertex -2.5 -33.3947 0.2
    endloop
  endfacet
  facet normal 1 0 0
    outer loop
      vertex -2.5 -33.3947 -0.2
      vertex -2.5 -36.3947 0.2
      vertex -2.5 -36.3947 -0.2
    endloop
  endfacet
  facet normal 0 -1 0
    outer loop
      vertex -2.5 -33.3947 -0.2
      vertex 2.5 -33.3947 0.2
      vertex -2.5 -33.3947 0.2
    endloop
  endfacet
  facet normal 0 -1 -0
    outer loop
      vertex 2.5 -33.3947 0.2
      vertex -2.5 -33.3947 -0.2
      vertex 2.5 -33.3947 -0.2
    endloop
  endfacet
  facet normal 0 1 -0
    outer loop
      vertex 2.5 -36.3947 -0.2
      vertex -2.5 -36.3947 0.2
      vertex 2.5 -36.3947 0.2
    endloop
  endfacet
  facet normal 0 1 0
    outer loop
      vertex -2.5 -36.3947 0.2
      vertex 2.5 -36.3947 -0.2
      vertex -2.5 -36.3947 -0.2
    endloop
  endfacet
  facet normal -1 0 0
    outer loop
      vertex 2.5 -27.8684 -0.2
      vertex 2.5 -24.8684 0.2
      vertex 2.5 -24.8684 -0.2
    endloop
  endfacet
  facet normal -1 -0 0
    outer loop
      vertex 2.5 -24.8684 0.2
      vertex 2.5 -27.8684 -0.2
      vertex 2.5 -27.8684 0.2
    endloop
  endfacet
  facet normal 1 -0 0
    outer loop
      vertex -2.5 -27.8684 0.2
      vertex -2.5 -24.8684 -0.2
      vertex -2.5 -24.8684 0.2
    endloop
  endfacet
  facet normal 1 0 0
    outer loop
      vertex -2.5 -24.8684 -0.2
      vertex -2.5 -27.8684 0.2
      vertex -2.5 -27.8684 -0.2
    endloop
  endfacet
  facet normal 0 -1 0
    outer loop
      vertex -2.5 -24.8684 -0.2
      vertex 2.5 -24.8684 0.2
      vertex -2.5 -24.8684 0.2
    endloop
  endfacet
  facet normal 0 -1 -0
    outer loop
      vertex 2.5 -24.8684 0.2
      vertex -2.5 -24.8684 -0.2
      vertex 2.5 -24.8684 -0.2
    endloop
  endfacet
  facet normal 0 1 -0
    outer loop
      vertex 2.5 -27.8684 -0.2
      vertex -2.5 -27.8684 0.2
      vertex 2.5 -27.8684 0.2
    endloop
  endfacet
  facet normal 0 1 0
    outer loop
      vertex -2.5 -27.8684 0.2
      vertex 2.5 -27.8684 -0.2
      vertex -2.5 -27.8684 -0.2
    endloop
  endfacet
  facet normal -1 0 0
    outer loop
      vertex 2.5 -19.3421 -0.2
      vertex 2.5 -16.3421 0.2
      vertex 2.5 -16.3421 -0.2
    endloop
  endfacet
  facet normal -1 -0 0
    outer loop
      vertex 2.5 -16.3421 0.2
      vertex 2.5 -19.3421 -0.2
      vertex 2.5 -19.3421 0.2
    endloop
  endfacet
  facet normal 1 -0 0
    outer loop
      vertex -2.5 -19.3421 0.2
      vertex -2.5 -16.3421 -0.2
      vertex -2.5 -16.3421 0.2
    endloop
  endfacet
  facet normal 1 0 0
    outer loop
      vertex -2.5 -16.3421 -0.2
      vertex -2.5 -19.3421 0.2
      vertex -2.5 -19.3421 -0.2
    endloop
  endfacet
  facet normal 0 -1 0
    outer loop
      vertex -2.5 -16.3421 -0.2
      vertex 2.5 -16.3421 0.2
      vertex -2.5 -16.3421 0.2
    endloop
  endfacet
  facet normal 0 -1 -0
    outer loop
      vertex 2.5 -16.3421 0.2
      vertex -2.5 -16.3421 -0.2
      vertex 2.5 -16.3421 -0.2
    endloop
  endfacet
  facet normal 0 1 -0
    outer loop
      vertex 2.5 -19.3421 -0.2
      vertex -2.5 -19.3421 0.2
      vertex 2.5 -19.3421 0.2
    endloop
  endfacet
  facet normal 0 1 0
    outer loop
      vertex -2.5 -19.3421 0.2
      vertex 2.5 -19.3421 -0.2
      vertex -2.5 -19.3421 -0.2
    endloop
  endfacet
  facet normal -1 0 0
    outer loop
      vertex 2.5 -10.8158 -0.2
      vertex 2.5 -7.81579 0.2
      vertex 2.5 -7.81579 -0.2
    endloop
  endfacet
  facet normal -1 -0 0
    outer loop
      vertex 2.5 -7.81579 0.2
      vertex 2.5 -10.8158 -0.2
      vertex 2.5 -10.8158 0.2
    endloop
  endfacet
  facet normal 1 -0 0
    outer loop
      vertex -2.5 -10.8158 0.2
      vertex -2.5 -7.81579 -0.2
      vertex -2.5 -7.81579 0.2
    endloop
  endfacet
  facet normal 1 0 0
    outer loop
      vertex -2.5 -7.81579 -0.2
      vertex -2.5 -10.8158 0.2
      vertex -2.5 -10.8158 -0.2
    endloop
  endfacet
  facet normal 0 -1 0
    outer loop
      vertex -2.5 -7.81579 -0.2
      vertex 2.5 -7.81579 0.2
      vertex -2.5 -7.81579 0.2
    endloop
  endfacet
  facet normal 0 -1 -0
    outer loop
      vertex 2.5 -7.81579 0.2
      vertex -2.5 -7.81579 -0.2
      vertex 2.5 -7.81579 -0.2
    endloop
  endfacet
  facet normal 0 1 -0
    outer loop
      vertex 2.5 -10.8158 -0.2
      vertex -2.5 -10.8158 0.2
      vertex 2.5 -10.8158 0.2
    endloop
  endfacet
  facet normal 0 1 0
    outer loop
      vertex -2.5 -10.8158 0.2
      vertex 2.5 -10.8158 -0.2
      vertex -2.5 -10.8158 -0.2
    endloop
  endfacet
  facet normal -1 0 0
    outer loop
      vertex 2.5 -2.28947 -0.2
      vertex 2.5 0.710526 0.2
      vertex 2.5 0.710526 -0.2
    endloop
  endfacet
  facet normal -1 -0 0
    outer loop
      vertex 2.5 0.710526 0.2
      vertex 2.5 -2.28947 -0.2
      vertex 2.5 -2.28947 0.2
    endloop
  endfacet
  facet normal 1 -0 0
    outer loop
      vertex -2.5 -2.28947 0.2
      vertex -2.5 0.710526 -0.2
      vertex -2.5 0.710526 0.2
    endloop
  endfacet
  facet normal 1 0 0
    outer loop
      vertex -2.5 0.710526 -0.2
      vertex -2.5 -2.28947 0.2
      vertex -2.5 -2.28947 -0.2
    endloop
  endfacet
  facet normal 0 -1 0
    outer loop
      vertex -2.5 0.710526 -0.2
      vertex 2.5 0.710526 0.2
      vertex -2.5 0.710526 0.2
    endloop
  endfacet
  facet normal 0 -1 -0
    outer loop
      vertex 2.5 0.710526 0.2
      vertex -2.5 0.710526 -0.2
      vertex 2.5 0.710526 -0.2
    endloop
  endfacet
  facet normal 0 1 -0
    outer loop
      vertex 2.5 -2.28947 -0.2
      vertex -2.5 -2.28947 0.2
      vertex 2.5 -2.28947 0.2
    endloop
  endfacet
  facet normal 0 1 0
    outer loop
      vertex -2.5 -2.28947 0.2
      vertex 2.5 -2.28947 -0.2
      vertex -2.5 -2.28947 -0.2
    endloop
  endfacet
  facet normal -1 0 0
    outer loop
      vertex 2.5 6.23684 -0.2
      vertex 2.5 9.23684 0.2
      vertex 2.5 9.23684 -0.2
    endloop
  endfacet
  facet normal -1 -0 0
    outer loop
      vertex 2.5 9.23684 0.2
      vertex 2.5 6.23684 -0.2
      vertex 2.5 6.23684 0.2
    endloop
  endfacet
  facet normal 1 -0 0
    outer loop
      vertex -2.5 6.23684 0.2
      vertex -2.5 9.23684 -0.2
      vertex -2.5 9.23684 0.2
    endloop
  endfacet
  facet normal 1 0 0
    outer loop
      vertex -2.5 9.23684 -0.2
      vertex -2.5 6.23684 0.2
      vertex -2.5 6.23684 -0.2
    endloop
  endfacet
  facet normal 0 -1 0
    outer loop
      vertex -2.5 9.23684 -0.2
      vertex 2.5 9.23684 0.2
      vertex -2.5 9.23684 0.2
    endloop
  endfacet
  facet normal 0 -1 -0
    outer loop
      vertex 2.5 9.23684 0.2
      vertex -2.5 9.23684 -0.2
      vertex 2.5 9.23684 -0.2
    endloop
  endfacet
  facet normal 0 1 -0
    outer loop
      vertex 2.5 6.23684 -0.2
      vertex -2.5 6.23684 0.2
      vertex 2.5 6.23684 0.2
    endloop
  endfacet
  facet normal 0 1 0
    outer loop
      vertex -2.5 6.23684 0.2
      vertex 2.5 6.23684 -0.2
      vertex -2.5 6.23684 -0.2
    endloop
  endfacet
  facet normal -1 0 0
    outer loop
      vertex 2.5 14.7632 -0.2
      vertex 2.5 17.7632 0.2
      vertex 2.5 17.7632 -0.2
    endloop
  endfacet
  facet normal -1 -0 0
    outer loop
      vertex 2.5 17.7632 0.2
      vertex 2.5 14.7632 -0.2
      vertex 2.5 14.7632 0.2
    endloop
  endfacet
  facet normal 1 -0 0
    outer loop
      vertex -2.5 14.7632 0.2
      vertex -2.5 17.7632 -0.2
      vertex -2.5 17.7632 0.2
    endloop
  endfacet
  facet normal 1 0 0
    outer loop
      vertex -2.5 17.7632 -0.2
      vertex -2.5 14.7632 0.2
      vertex -2.5 14.7632 -0.2
    endloop
  endfacet
  facet normal 0 -1 0
    outer loop
      vertex -2.5 17.7632 -0.2
      vertex 2.5 17.7632 0.2
      vertex -2.5 17.7632 0.2
    endloop
  endfacet
  facet normal 0 -1 -0
    outer loop
      vertex 2.5 17.7632 0.2
      vertex -2.5 17.7632 -0.2
      vertex 2.5 17.7632 -0.2
    endloop
  endfacet
  facet normal 0 1 -0
    outer loop
      vertex 2.5 14.7632 -0.2
      vertex -2.5 14.7632 0.2
      vertex 2.5 14.7632 0.2
    endloop
  endfacet
  facet normal 0 1 0
    outer loop
      vertex -2.5 14.7632 0.2
      vertex 2.5 14.7632 -0.2
      vertex -2.5 14.7632 -0.2
    endloop
  endfacet
  facet normal -1 0 0
    outer loop
      vertex 2.5 23.2895 -0.2
      vertex 2.5 26.2895 0.2
      vertex 2.5 26.2895 -0.2
    endloop
  endfacet
  facet normal -1 -0 0
    outer loop
      vertex 2.5 26.2895 0.2
      vertex 2.5 23.2895 -0.2
      vertex 2.5 23.2895 0.2
    endloop
  endfacet
  facet normal 1 -0 0
    outer loop
      vertex -2.5 23.2895 0.2
      vertex -2.5 26.2895 -0.2
      vertex -2.5 26.2895 0.2
    endloop
  endfacet
  facet normal 1 0 0
    outer loop
      vertex -2.5 26.2895 -0.2
      vertex -2.5 23.2895 0.2
      vertex -2.5 23.2895 -0.2
    endloop
  endfacet
  facet normal 0 -1 0
    outer loop
      vertex -2.5 26.2895 -0.2
      vertex 2.5 26.2895 0.2
      vertex -2.5 26.2895 0.2
    endloop
  endfacet
  facet normal 0 -1 -0
    outer loop
      vertex 2.5 26.2895 0.2
      vertex -2.5 26.2895 -0.2
      vertex 2.5 26.2895 -0.2
    endloop
  endfacet
  facet normal 0 1 -0
    outer loop
      vertex 2.5 23.2895 -0.2
      vertex -2.5 23.2895 0.2
      vertex 2.5 23.2895 0.2
    endloop
  endfacet
  facet normal 0 1 0
    outer loop
      vertex -2.5 23.2895 0.2
      vertex 2.5 23.2895 -0.2
      vertex -2.5 23.2895 -0.2
    endloop
  endfacet
  facet normal -1 0 0
    outer loop
      vertex 2.5 31.8158 -0.2
      vertex 2.5 34.8158 0.2
      vertex 2.5 34.8158 -0.2
    endloop
  endfacet
  facet normal -1 -0 0
    outer loop
      vertex 2.5 34.8158 0.2
      vertex 2.5 31.8158 -0.2
      vertex 2.5 31.8158 0.2
    endloop
  endfacet
  facet normal 1 -0 0
    outer loop
      vertex -2.5 31.8158 0.2
      vertex -2.5 34.8158 -0.2
      vertex -2.5 34.8158 0.2
    endloop
  endfacet
  facet normal 1 0 0
    outer loop
      vertex -2.5 34.8158 -0.2
      vertex -2.5 31.8158 0.2
      vertex -2.5 31.8158 -0.2
    endloop
  endfacet
  facet normal 0 -1 0
    outer loop
      vertex -2.5 34.8158 -0.2
      vertex 2.5 34.8158 0.2
      vertex -2.5 34.8158 0.2
    endloop
  endfacet
  facet normal 0 -1 -0
    outer loop
      vertex 2.5 34.8158 0.2
      vertex -2.5 34.8158 -0.2
      vertex 2.5 34.8158 -0.2
    endloop
  endfacet
  facet normal 0 1 -0
    outer loop
      vertex 2.5 31.8158 -0.2
      vertex -2.5 31.8158 0.2
      vertex 2.5 31.8158 0.2
    endloop
  endfacet
  facet normal 0 1 0
    outer loop
      vertex -2.5 31.8158 0.2
      vertex 2.5 31.8158 -0.2
      vertex -2.5 31.8158 -0.2
    endloop
  endfacet
  facet normal -1 0 0
    outer loop
      vertex 2.5 40.3421 -0.2
      vertex 2.5 43.3421 0.2
      vertex 2.5 43.3421 -0.2
    endloop
  endfacet
  facet normal -1 -0 0
    outer loop
      vertex 2.5 43.3421 0.2
      vertex 2.5 40.3421 -0.2
      vertex 2.5 40.3421 0.2
    endloop
  endfacet
  facet normal 1 -0 0
    outer loop
      vertex -2.5 40.3421 0.2
      vertex -2.5 43.3421 -0.2
      vertex -2.5 43.3421 0.2
    endloop
  endfacet
  facet normal 1 0 0
    outer loop
      vertex -2.5 43.3421 -0.2
      vertex -2.5 40.3421 0.2
      vertex -2.5 40.3421 -0.2
    endloop
  endfacet
  facet normal 0 -1 0
    outer loop
      vertex -2.5 43.3421 -0.2
      vertex 2.5 43.3421 0.2
      vertex -2.5 43.3421 0.2
    endloop
  endfacet
  facet normal 0 -1 -0
    outer loop
      vertex 2.5 43.3421 0.2
      vertex -2.5 43.3421 -0.2
      vertex 2.5 43.3421 -0.2
    endloop
  endfacet
  facet normal 0 1 -0
    outer loop
      vertex 2.5 40.3421 -0.2
      vertex -2.5 40.3421 0.2
      vertex 2.5 40.3421 0.2
    endloop
  endfacet
  facet normal 0 1 0
    outer loop
      vertex -2.5 40.3421 0.2
      vertex 2.5 40.3421 -0.2
      vertex -2.5 40.3421 -0.2
    endloop
  endfacet
  facet normal -1 0 0
    outer loop
      vertex 2.5 48.8684 -0.2
      vertex 2.5 51.8684 0.2
      vertex 2.5 51.8684 -0.2
    endloop
  endfacet
  facet normal -1 -0 0
    outer loop
      vertex 2.5 51.8684 0.2
      vertex 2.5 48.8684 -0.2
      vertex 2.5 48.8684 0.2
    endloop
  endfacet
  facet normal 1 -0 0
    outer loop
      vertex -2.5 48.8684 0.2
      vertex -2.5 51.8684 -0.2
      vertex -2.5 51.8684 0.2
    endloop
  endfacet
  facet normal 1 0 0
    outer loop
      vertex -2.5 51.8684 -0.2
      vertex -2.5 48.8684 0.2
      vertex -2.5 48.8684 -0.2
    endloop
  endfacet
  facet normal 0 -1 0
    outer loop
      vertex -2.5 51.8684 -0.2
      vertex 2.5 51.8684 0.2
      vertex -2.5 51.8684 0.2
    endloop
  endfacet
  facet normal 0 -1 -0
    outer loop
      vertex 2.5 51.8684 0.2
      vertex -2.5 51.8684 -0.2
      vertex 2.5 51.8684 -0.2
    endloop
  endfacet
  facet normal 0 1 -0
    outer loop
      vertex 2.5 48.8684 -0.2
      vertex -2.5 48.8684 0.2
      vertex 2.5 48.8684 0.2
    endloop
  endfacet
  facet normal 0 1 0
    outer loop
      vertex -2.5 48.8684 0.2
      vertex 2.5 48.8684 -0.2
      vertex -2.5 48.8684 -0.2
    endloop
  endfacet
  facet normal -1 0 0
    outer loop
      vertex 2.5 57.3947 -0.2
      vertex 2.5 60.3947 0.2
      vertex 2.5 60.3947 -0.2
    endloop
  endfacet
  facet normal -1 -0 0
    outer loop
      vertex 2.5 60.3947 0.2
      vertex 2.5 57.3947 -0.2
      vertex 2.5 57.3947 0.2
    endloop
  endfacet
  facet normal 1 -0 0
    outer loop
      vertex -2.5 57.3947 0.2
      vertex -2.5 60.3947 -0.2
      vertex -2.5 60.3947 0.2
    endloop
  endfacet
  facet normal 1 0 0
    outer loop
      vertex -2.5 60.3947 -0.2
      vertex -2.5 57.3947 0.2
      vertex -2.5 57.3947 -0.2
    endloop
  endfacet
  facet normal 0 -1 0
    outer loop
      vertex -2.5 60.3947 -0.2
      vertex 2.5 60.3947 0.2
      vertex -2.5 60.3947 0.2
    endloop
  endfacet
  facet normal 0 -1 -0
    outer loop
      vertex 2.5 60.3947 0.2
      vertex -2.5 60.3947 -0.2
      vertex 2.5 60.3947 -0.2
    endloop
  endfacet
  facet normal 0 1 -0
    outer loop
      vertex 2.5 57.3947 -0.2
      vertex -2.5 57.3947 0.2
      vertex 2.5 57.3947 0.2
    endloop
  endfacet
  facet normal 0 1 0
    outer loop
      vertex -2.5 57.3947 0.2
      vertex 2.5 57.3947 -0.2
      vertex -2.5 57.3947 -0.2
    endloop
  endfacet
  facet normal -1 0 0
    outer loop
      vertex 2.5 65.9211 -0.2
      vertex 2.5 68.9211 0.2
      vertex 2.5 68.9211 -0.2
    endloop
  endfacet
  facet normal -1 -0 0
    outer loop
      vertex 2.5 68.9211 0.2
      vertex 2.5 65.9211 -0.2
      vertex 2.5 65.9211 0.2
    endloop
  endfacet
  facet normal 1 -0 0
    outer loop
      vertex -2.5 65.9211 0.2
      vertex -2.5 68.9211 -0.2
      vertex -2.5 68.9211 0.2
    endloop
  endfacet
  facet normal 1 0 0
    outer loop
      vertex -2.5 68.9211 -0.2
      vertex -2.5 65.9211 0.2
      vertex -2.5 65.9211 -0.2
    endloop
  endfacet
  facet normal 0 -1 0
    outer loop
      vertex -2.5 68.9211 -0.2
      vertex 2.5 68.9211 0.2
      vertex -2.5 68.9211 0.2
    endloop
  endfacet
  facet normal 0 -1 -0
    outer loop
      vertex 2.5 68.9211 0.2
      vertex -2.5 68.9211 -0.2
      vertex 2.5 68.9211 -0.2
    endloop
  endfacet
  facet normal 0 1 -0
    outer loop
      vertex 2.5 65.9211 -0.2
      vertex -2.5 65.9211 0.2
      vertex 2.5 65.9211 0.2
    endloop
  endfacet
  facet normal 0 1 0
    outer loop
      vertex -2.5 65.9211 0.2
      vertex 2.5 65.9211 -0.2
      vertex -2.5 65.9211 -0.2
    endloop
  endfacet
  facet normal 1 -0 0
    outer loop
      vertex 10 -73 0.2
      vertex 10 73 -0.2
      vertex 10 73 0.2
    endloop
  endfacet
  facet normal 1 0 0
    outer loop
      vertex 10 73 -0.2
      vertex 10 -73 0.2
      vertex 10 -73 -0.2
    endloop
  endfacet
  facet normal -0 0 1
    outer loop
      vertex -2.5 -61.9737 0.2
      vertex 2.5 -67.5 0.2
      vertex 2.5 -61.9737 0.2
    endloop
  endfacet
  facet normal 0 0 1
    outer loop
      vertex 2.5 -67.5 0.2
      vertex -2.5 -61.9737 0.2
      vertex -2.5 -67.5 0.2
    endloop
  endfacet
  facet normal -0 0 1
    outer loop
      vertex -2.5 -53.4474 0.2
      vertex 2.5 -58.9737 0.2
      vertex 2.5 -53.4474 0.2
    endloop
  endfacet
  facet normal 0 0 1
    outer loop
      vertex 2.5 -58.9737 0.2
      vertex -2.5 -53.4474 0.2
      vertex -2.5 -58.9737 0.2
    endloop
  endfacet
  facet normal -0 0 1
    outer loop
      vertex -2.5 -44.9211 0.2
      vertex 2.5 -50.4474 0.2
      vertex 2.5 -44.9211 0.2
    endloop
  endfacet
  facet normal 0 0 1
    outer loop
      vertex 2.5 -50.4474 0.2
      vertex -2.5 -44.9211 0.2
      vertex -2.5 -50.4474 0.2
    endloop
  endfacet
  facet normal -0 0 1
    outer loop
      vertex -2.5 -36.3947 0.2
      vertex 2.5 -41.9211 0.2
      vertex 2.5 -36.3947 0.2
    endloop
  endfacet
  facet normal 0 0 1
    outer loop
      vertex 2.5 -41.9211 0.2
      vertex -2.5 -36.3947 0.2
      vertex -2.5 -41.9211 0.2
    endloop
  endfacet
  facet normal -0 0 1
    outer loop
      vertex -2.5 -27.8684 0.2
      vertex 2.5 -33.3947 0.2
      vertex 2.5 -27.8684 0.2
    endloop
  endfacet
  facet normal 0 0 1
    outer loop
      vertex 2.5 -33.3947 0.2
      vertex -2.5 -27.8684 0.2
      vertex -2.5 -33.3947 0.2
    endloop
  endfacet
  facet normal -0 0 1
    outer loop
      vertex -2.5 -19.3421 0.2
      vertex 2.5 -24.8684 0.2
      vertex 2.5 -19.3421 0.2
    endloop
  endfacet
  facet normal 0 0 1
    outer loop
      vertex 2.5 -24.8684 0.2
      vertex -2.5 -19.3421 0.2
      vertex -2.5 -24.8684 0.2
    endloop
  endfacet
  facet normal -0 0 1
    outer loop
      vertex -2.5 -10.8158 0.2
      vertex 2.5 -16.3421 0.2
      vertex 2.5 -10.8158 0.2
    endloop
  endfacet
  facet normal 0 0 1
    outer loop
      vertex 2.5 -16.3421 0.2
      vertex -2.5 -10.8158 0.2
      vertex -2.5 -16.3421 0.2
    endloop
  endfacet
  facet normal -0 0 1
    outer loop
      vertex -2.5 -2.28947 0.2
      vertex 2.5 -7.81579 0.2
      vertex 2.5 -2.28947 0.2
    endloop
  endfacet
  facet normal 0 0 1
    outer loop
      vertex 2.5 -7.81579 0.2
      vertex -2.5 -2.28947 0.2
      vertex -2.5 -7.81579 0.2
    endloop
  endfacet
  facet normal -0 0 1
    outer loop
      vertex -2.5 6.23684 0.2
      vertex 2.5 0.710526 0.2
      vertex 2.5 6.23684 0.2
    endloop
  endfacet
  facet normal 0 0 1
    outer loop
      vertex 2.5 0.710526 0.2
      vertex -2.5 6.23684 0.2
      vertex -2.5 0.710526 0.2
    endloop
  endfacet
  facet normal -0 0 1
    outer loop
      vertex -2.5 14.7632 0.2
      vertex 2.5 9.23684 0.2
      vertex 2.5 14.7632 0.2
    endloop
  endfacet
  facet normal 0 0 1
    outer loop
      vertex 2.5 9.23684 0.2
      vertex -2.5 14.7632 0.2
      vertex -2.5 9.23684 0.2
    endloop
  endfacet
  facet normal -0 0 1
    outer loop
      vertex -2.5 23.2895 0.2
      vertex 2.5 17.7632 0.2
      vertex 2.5 23.2895 0.2
    endloop
  endfacet
  facet normal 0 0 1
    outer loop
      vertex 2.5 17.7632 0.2
      vertex -2.5 23.2895 0.2
      vertex -2.5 17.7632 0.2
    endloop
  endfacet
  facet normal -0 0 1
    outer loop
      vertex -2.5 31.8158 0.2
      vertex 2.5 26.2895 0.2
      vertex 2.5 31.8158 0.2
    endloop
  endfacet
  facet normal 0 0 1
    outer loop
      vertex 2.5 26.2895 0.2
      vertex -2.5 31.8158 0.2
      vertex -2.5 26.2895 0.2
    endloop
  endfacet
  facet normal -0 0 1
    outer loop
      vertex -2.5 40.3421 0.2
      vertex 2.5 34.8158 0.2
      vertex 2.5 40.3421 0.2
    endloop
  endfacet
  facet normal 0 0 1
    outer loop
      vertex 2.5 34.8158 0.2
      vertex -2.5 40.3421 0.2
      vertex -2.5 34.8158 0.2
    endloop
  endfacet
  facet normal -0 0 1
    outer loop
      vertex -2.5 48.8684 0.2
      vertex 2.5 43.3421 0.2
      vertex 2.5 48.8684 0.2
    endloop
  endfacet
  facet normal 0 0 1
    outer loop
      vertex 2.5 43.3421 0.2
      vertex -2.5 48.8684 0.2
      vertex -2.5 43.3421 0.2
    endloop
  endfacet
  facet normal -0 0 1
    outer loop
      vertex -2.5 57.3947 0.2
      vertex 2.5 51.8684 0.2
      vertex 2.5 57.3947 0.2
    endloop
  endfacet
  facet normal 0 0 1
    outer loop
      vertex 2.5 51.8684 0.2
      vertex -2.5 57.3947 0.2
      vertex -2.5 51.8684 0.2
    endloop
  endfacet
  facet normal -0 0 1
    outer loop
      vertex -2.5 65.9211 0.2
      vertex 2.5 60.3947 0.2
      vertex 2.5 65.9211 0.2
    endloop
  endfacet
  facet normal 0 0 1
    outer loop
      vertex 2.5 60.3947 0.2
      vertex -2.5 65.9211 0.2
      vertex -2.5 60.3947 0.2
    endloop
  endfacet
  facet normal 0 0 1
    outer loop
      vertex 2.5 65.9211 0.2
      vertex 10 73 0.2
      vertex 2.5 68.9211 0.2
    endloop
  endfacet
  facet normal 0 0 1
    outer loop
      vertex 10 73 0.2
      vertex -2.5 68.9211 0.2
      vertex 2.5 68.9211 0.2
    endloop
  endfacet
  facet normal 0 0 1
    outer loop
      vertex -10 73 0.2
      vertex -2.5 65.9211 0.2
      vertex -2.5 68.9211 0.2
    endloop
  endfacet
  facet normal 0 0 1
    outer loop
      vertex -2.5 65.9211 0.2
      vertex -10 73 0.2
      vertex -2.5 60.3947 0.2
    endloop
  endfacet
  facet normal 0 0 1
    outer loop
      vertex -2.5 60.3947 0.2
      vertex -10 73 0.2
      vertex -2.5 57.3947 0.2
    endloop
  endfacet
  facet normal 0 0 1
    outer loop
      vertex -2.5 57.3947 0.2
      vertex -10 73 0.2
      vertex -2.5 51.8684 0.2
    endloop
  endfacet
  facet normal 0 0 1
    outer loop
      vertex -2.5 51.8684 0.2
      vertex -10 73 0.2
      vertex -2.5 48.8684 0.2
    endloop
  endfacet
  facet normal 0 0 1
    outer loop
      vertex -2.5 48.8684 0.2
      vertex -10 73 0.2
      vertex -2.5 43.3421 0.2
    endloop
  endfacet
  facet normal 0 0 1
    outer loop
      vertex -2.5 43.3421 0.2
      vertex -10 73 0.2
      vertex -2.5 40.3421 0.2
    endloop
  endfacet
  facet normal 0 0 1
    outer loop
      vertex -2.5 40.3421 0.2
      vertex -10 73 0.2
      vertex -2.5 34.8158 0.2
    endloop
  endfacet
  facet normal 0 0 1
    outer loop
      vertex -2.5 34.8158 0.2
      vertex -10 73 0.2
      vertex -2.5 31.8158 0.2
    endloop
  endfacet
  facet normal 0 0 1
    outer loop
      vertex -2.5 31.8158 0.2
      vertex -10 73 0.2
      vertex -2.5 26.2895 0.2
    endloop
  endfacet
  facet normal 0 0 1
    outer loop
      vertex -2.5 26.2895 0.2
      vertex -10 73 0.2
      vertex -2.5 23.2895 0.2
    endloop
  endfacet
  facet normal 0 0 1
    outer loop
      vertex -2.5 23.2895 0.2
      vertex -10 73 0.2
      vertex -2.5 17.7632 0.2
    endloop
  endfacet
  facet normal 0 0 1
    outer loop
      vertex -2.5 17.7632 0.2
      vertex -10 73 0.2
      vertex -2.5 14.7632 0.2
    endloop
  endfacet
  facet normal 0 0 1
    outer loop
      vertex -2.5 14.7632 0.2
      vertex -10 73 0.2
      vertex -2.5 9.23684 0.2
    endloop
  endfacet
  facet normal 0 0 1
    outer loop
      vertex -2.5 9.23684 0.2
      vertex -10 73 0.2
      vertex -2.5 6.23684 0.2
    endloop
  endfacet
  facet normal 0 0 1
    outer loop
      vertex -2.5 6.23684 0.2
      vertex -10 73 0.2
      vertex -2.5 0.710526 0.2
    endloop
  endfacet
  facet normal 0 0 1
    outer loop
      vertex -2.5 0.710526 0.2
      vertex -10 73 0.2
      vertex -2.5 -2.28947 0.2
    endloop
  endfacet
  facet normal 0 0 1
    outer loop
      vertex -10 -73 0.2
      vertex -2.5 -2.28947 0.2
      vertex -10 73 0.2
    endloop
  endfacet
  facet normal 0 0 1
    outer loop
      vertex -2.5 -2.28947 0.2
      vertex -10 -73 0.2
      vertex -2.5 -7.81579 0.2
    endloop
  endfacet
  facet normal 0 0 1
    outer loop
      vertex -2.5 -7.81579 0.2
      vertex -10 -73 0.2
      vertex -2.5 -10.8158 0.2
    endloop
  endfacet
  facet normal 0 0 1
    outer loop
      vertex -2.5 -10.8158 0.2
      vertex -10 -73 0.2
      vertex -2.5 -16.3421 0.2
    endloop
  endfacet
  facet normal 0 0 1
    outer loop
      vertex -2.5 -16.3421 0.2
      vertex -10 -73 0.2
      vertex -2.5 -19.3421 0.2
    endloop
  endfacet
  facet normal 0 0 1
    outer loop
      vertex -2.5 -19.3421 0.2
      vertex -10 -73 0.2
      vertex -2.5 -24.8684 0.2
    endloop
  endfacet
  facet normal 0 0 1
    outer loop
      vertex -2.5 -24.8684 0.2
      vertex -10 -73 0.2
      vertex -2.5 -27.8684 0.2
    endloop
  endfacet
  facet normal 0 0 1
    outer loop
      vertex -2.5 -27.8684 0.2
      vertex -10 -73 0.2
      vertex -2.5 -33.3947 0.2
    endloop
  endfacet
  facet normal 0 0 1
    outer loop
      vertex -2.5 -33.3947 0.2
      vertex -10 -73 0.2
      vertex -2.5 -36.3947 0.2
    endloop
  endfacet
  facet normal 0 0 1
    outer loop
      vertex -2.5 -36.3947 0.2
      vertex -10 -73 0.2
      vertex -2.5 -41.9211 0.2
    endloop
  endfacet
  facet normal 0 0 1
    outer loop
      vertex -2.5 -41.9211 0.2
      vertex -10 -73 0.2
      vertex -2.5 -44.9211 0.2
    endloop
  endfacet
  facet normal 0 0 1
    outer loop
      vertex -2.5 -44.9211 0.2
      vertex -10 -73 0.2
      vertex -2.5 -50.4474 0.2
    endloop
  endfacet
  facet normal 0 0 1
    outer loop
      vertex -2.5 -50.4474 0.2
      vertex -10 -73 0.2
      vertex -2.5 -53.4474 0.2
    endloop
  endfacet
  facet normal 0 0 1
    outer loop
      vertex -2.5 -53.4474 0.2
      vertex -10 -73 0.2
      vertex -2.5 -58.9737 0.2
    endloop
  endfacet
  facet normal 0 0 1
    outer loop
      vertex -2.5 -58.9737 0.2
      vertex -10 -73 0.2
      vertex -2.5 -61.9737 0.2
    endloop
  endfacet
  facet normal 0 0 1
    outer loop
      vertex -2.5 -61.9737 0.2
      vertex -10 -73 0.2
      vertex -2.5 -67.5 0.2
    endloop
  endfacet
  facet normal -0 0 1
    outer loop
      vertex -10 73 0.2
      vertex -2.5 68.9211 0.2
      vertex 10 73 0.2
    endloop
  endfacet
  facet normal 0 0 1
    outer loop
      vertex 2.5 60.3947 0.2
      vertex 10 73 0.2
      vertex 2.5 65.9211 0.2
    endloop
  endfacet
  facet normal 0 0 1
    outer loop
      vertex 2.5 57.3947 0.2
      vertex 10 73 0.2
      vertex 2.5 60.3947 0.2
    endloop
  endfacet
  facet normal 0 0 1
    outer loop
      vertex 2.5 51.8684 0.2
      vertex 10 73 0.2
      vertex 2.5 57.3947 0.2
    endloop
  endfacet
  facet normal 0 0 1
    outer loop
      vertex 2.5 48.8684 0.2
      vertex 10 73 0.2
      vertex 2.5 51.8684 0.2
    endloop
  endfacet
  facet normal 0 0 1
    outer loop
      vertex 2.5 43.3421 0.2
      vertex 10 73 0.2
      vertex 2.5 48.8684 0.2
    endloop
  endfacet
  facet normal 0 0 1
    outer loop
      vertex 2.5 40.3421 0.2
      vertex 10 73 0.2
      vertex 2.5 43.3421 0.2
    endloop
  endfacet
  facet normal 0 0 1
    outer loop
      vertex 2.5 34.8158 0.2
      vertex 10 73 0.2
      vertex 2.5 40.3421 0.2
    endloop
  endfacet
  facet normal 0 0 1
    outer loop
      vertex 2.5 31.8158 0.2
      vertex 10 73 0.2
      vertex 2.5 34.8158 0.2
    endloop
  endfacet
  facet normal 0 0 1
    outer loop
      vertex 2.5 26.2895 0.2
      vertex 10 73 0.2
      vertex 2.5 31.8158 0.2
    endloop
  endfacet
  facet normal 0 0 1
    outer loop
      vertex 2.5 23.2895 0.2
      vertex 10 73 0.2
      vertex 2.5 26.2895 0.2
    endloop
  endfacet
  facet normal 0 0 1
    outer loop
      vertex 2.5 17.7632 0.2
      vertex 10 73 0.2
      vertex 2.5 23.2895 0.2
    endloop
  endfacet
  facet normal 0 0 1
    outer loop
      vertex 2.5 14.7632 0.2
      vertex 10 73 0.2
      vertex 2.5 17.7632 0.2
    endloop
  endfacet
  facet normal 0 0 1
    outer loop
      vertex 2.5 9.23684 0.2
      vertex 10 73 0.2
      vertex 2.5 14.7632 0.2
    endloop
  endfacet
  facet normal 0 0 1
    outer loop
      vertex 2.5 6.23684 0.2
      vertex 10 73 0.2
      vertex 2.5 9.23684 0.2
    endloop
  endfacet
  facet normal 0 0 1
    outer loop
      vertex 2.5 0.710526 0.2
      vertex 10 73 0.2
      vertex 2.5 6.23684 0.2
    endloop
  endfacet
  facet normal 0 0 1
    outer loop
      vertex 10 73 0.2
      vertex 2.5 0.710526 0.2
      vertex 10 -73 0.2
    endloop
  endfacet
  facet normal -0 0 1
    outer loop
      vertex 2.5 -2.28947 0.2
      vertex 10 -73 0.2
      vertex 2.5 0.710526 0.2
    endloop
  endfacet
  facet normal -0 0 1
    outer loop
      vertex 2.5 -7.81579 0.2
      vertex 10 -73 0.2
      vertex 2.5 -2.28947 0.2
    endloop
  endfacet
  facet normal -0 0 1
    outer loop
      vertex 2.5 -10.8158 0.2
      vertex 10 -73 0.2
      vertex 2.5 -7.81579 0.2
    endloop
  endfacet
  facet normal -0 0 1
    outer loop
      vertex 2.5 -16.3421 0.2
      vertex 10 -73 0.2
      vertex 2.5 -10.8158 0.2
    endloop
  endfacet
  facet normal -0 0 1
    outer loop
      vertex 2.5 -19.3421 0.2
      vertex 10 -73 0.2
      vertex 2.5 -16.3421 0.2
    endloop
  endfacet
  facet normal -0 0 1
    outer loop
      vertex 2.5 -24.8684 0.2
      vertex 10 -73 0.2
      vertex 2.5 -19.3421 0.2
    endloop
  endfacet
  facet normal -0 0 1
    outer loop
      vertex 2.5 -27.8684 0.2
      vertex 10 -73 0.2
      vertex 2.5 -24.8684 0.2
    endloop
  endfacet
  facet normal -0 0 1
    outer loop
      vertex 2.5 -33.3947 0.2
      vertex 10 -73 0.2
      vertex 2.5 -27.8684 0.2
    endloop
  endfacet
  facet normal -0 0 1
    outer loop
      vertex 2.5 -36.3947 0.2
      vertex 10 -73 0.2
      vertex 2.5 -33.3947 0.2
    endloop
  endfacet
  facet normal -0 0 1
    outer loop
      vertex 2.5 -41.9211 0.2
      vertex 10 -73 0.2
      vertex 2.5 -36.3947 0.2
    endloop
  endfacet
  facet normal -0 0 1
    outer loop
      vertex 2.5 -44.9211 0.2
      vertex 10 -73 0.2
      vertex 2.5 -41.9211 0.2
    endloop
  endfacet
  facet normal -0 0 1
    outer loop
      vertex 2.5 -50.4474 0.2
      vertex 10 -73 0.2
      vertex 2.5 -44.9211 0.2
    endloop
  endfacet
  facet normal -0 0 1
    outer loop
      vertex 2.5 -53.4474 0.2
      vertex 10 -73 0.2
      vertex 2.5 -50.4474 0.2
    endloop
  endfacet
  facet normal -0 0 1
    outer loop
      vertex 2.5 -58.9737 0.2
      vertex 10 -73 0.2
      vertex 2.5 -53.4474 0.2
    endloop
  endfacet
  facet normal -0 0 1
    outer loop
      vertex 2.5 -61.9737 0.2
      vertex 10 -73 0.2
      vertex 2.5 -58.9737 0.2
    endloop
  endfacet
  facet normal -0 0 1
    outer loop
      vertex 2.5 -67.5 0.2
      vertex 10 -73 0.2
      vertex 2.5 -61.9737 0.2
    endloop
  endfacet
  facet normal -0 0 1
    outer loop
      vertex 2.5 -70.5 0.2
      vertex 10 -73 0.2
      vertex 2.5 -67.5 0.2
    endloop
  endfacet
  facet normal -0 0 1
    outer loop
      vertex -2.5 -70.5 0.2
      vertex 10 -73 0.2
      vertex 2.5 -70.5 0.2
    endloop
  endfacet
  facet normal 0 0 1
    outer loop
      vertex -2.5 -70.5 0.2
      vertex -10 -73 0.2
      vertex 10 -73 0.2
    endloop
  endfacet
  facet normal 0 0 1
    outer loop
      vertex -2.5 -67.5 0.2
      vertex -10 -73 0.2
      vertex -2.5 -70.5 0.2
    endloop
  endfacet
  facet normal 0 0 -1
    outer loop
      vertex -2.5 60.3947 -0.2
      vertex 2.5 65.9211 -0.2
      vertex 2.5 60.3947 -0.2
    endloop
  endfacet
  facet normal -0 0 -1
    outer loop
      vertex 2.5 65.9211 -0.2
      vertex -2.5 60.3947 -0.2
      vertex -2.5 65.9211 -0.2
    endloop
  endfacet
  facet normal 0 0 -1
    outer loop
      vertex -2.5 51.8684 -0.2
      vertex 2.5 57.3947 -0.2
      vertex 2.5 51.8684 -0.2
    endloop
  endfacet
  facet normal -0 0 -1
    outer loop
      vertex 2.5 57.3947 -0.2
      vertex -2.5 51.8684 -0.2
      vertex -2.5 57.3947 -0.2
    endloop
  endfacet
  facet normal 0 0 -1
    outer loop
      vertex -2.5 43.3421 -0.2
      vertex 2.5 48.8684 -0.2
      vertex 2.5 43.3421 -0.2
    endloop
  endfacet
  facet normal -0 0 -1
    outer loop
      vertex 2.5 48.8684 -0.2
      vertex -2.5 43.3421 -0.2
      vertex -2.5 48.8684 -0.2
    endloop
  endfacet
  facet normal 0 0 -1
    outer loop
      vertex -2.5 34.8158 -0.2
      vertex 2.5 40.3421 -0.2
      vertex 2.5 34.8158 -0.2
    endloop
  endfacet
  facet normal -0 0 -1
    outer loop
      vertex 2.5 40.3421 -0.2
      vertex -2.5 34.8158 -0.2
      vertex -2.5 40.3421 -0.2
    endloop
  endfacet
  facet normal 0 0 -1
    outer loop
      vertex -2.5 26.2895 -0.2
      vertex 2.5 31.8158 -0.2
      vertex 2.5 26.2895 -0.2
    endloop
  endfacet
  facet normal -0 0 -1
    outer loop
      vertex 2.5 31.8158 -0.2
      vertex -2.5 26.2895 -0.2
      vertex -2.5 31.8158 -0.2
    endloop
  endfacet
  facet normal 0 0 -1
    outer loop
      vertex -2.5 17.7632 -0.2
      vertex 2.5 23.2895 -0.2
      vertex 2.5 17.7632 -0.2
    endloop
  endfacet
  facet normal -0 0 -1
    outer loop
      vertex 2.5 23.2895 -0.2
      vertex -2.5 17.7632 -0.2
      vertex -2.5 23.2895 -0.2
    endloop
  endfacet
  facet normal 0 0 -1
    outer loop
      vertex -2.5 9.23684 -0.2
      vertex 2.5 14.7632 -0.2
      vertex 2.5 9.23684 -0.2
    endloop
  endfacet
  facet normal -0 0 -1
    outer loop
      vertex 2.5 14.7632 -0.2
      vertex -2.5 9.23684 -0.2
      vertex -2.5 14.7632 -0.2
    endloop
  endfacet
  facet normal 0 0 -1
    outer loop
      vertex -2.5 0.710526 -0.2
      vertex 2.5 6.23684 -0.2
      vertex 2.5 0.710526 -0.2
    endloop
  endfacet
  facet normal -0 0 -1
    outer loop
      vertex 2.5 6.23684 -0.2
      vertex -2.5 0.710526 -0.2
      vertex -2.5 6.23684 -0.2
    endloop
  endfacet
  facet normal 0 0 -1
    outer loop
      vertex -2.5 -7.81579 -0.2
      vertex 2.5 -2.28947 -0.2
      vertex 2.5 -7.81579 -0.2
    endloop
  endfacet
  facet normal -0 0 -1
    outer loop
      vertex 2.5 -2.28947 -0.2
      vertex -2.5 -7.81579 -0.2
      vertex -2.5 -2.28947 -0.2
    endloop
  endfacet
  facet normal 0 0 -1
    outer loop
      vertex -2.5 -16.3421 -0.2
      vertex 2.5 -10.8158 -0.2
      vertex 2.5 -16.3421 -0.2
    endloop
  endfacet
  facet normal -0 0 -1
    outer loop
      vertex 2.5 -10.8158 -0.2
      vertex -2.5 -16.3421 -0.2
      vertex -2.5 -10.8158 -0.2
    endloop
  endfacet
  facet normal 0 0 -1
    outer loop
      vertex -2.5 -24.8684 -0.2
      vertex 2.5 -19.3421 -0.2
      vertex 2.5 -24.8684 -0.2
    endloop
  endfacet
  facet normal -0 0 -1
    outer loop
      vertex 2.5 -19.3421 -0.2
      vertex -2.5 -24.8684 -0.2
      vertex -2.5 -19.3421 -0.2
    endloop
  endfacet
  facet normal 0 0 -1
    outer loop
      vertex -2.5 -33.3947 -0.2
      vertex 2.5 -27.8684 -0.2
      vertex 2.5 -33.3947 -0.2
    endloop
  endfacet
  facet normal -0 0 -1
    outer loop
      vertex 2.5 -27.8684 -0.2
      vertex -2.5 -33.3947 -0.2
      vertex -2.5 -27.8684 -0.2
    endloop
  endfacet
  facet normal 0 0 -1
    outer loop
      vertex -2.5 -41.9211 -0.2
      vertex 2.5 -36.3947 -0.2
      vertex 2.5 -41.9211 -0.2
    endloop
  endfacet
  facet normal -0 0 -1
    outer loop
      vertex 2.5 -36.3947 -0.2
      vertex -2.5 -41.9211 -0.2
      vertex -2.5 -36.3947 -0.2
    endloop
  endfacet
  facet normal 0 0 -1
    outer loop
      vertex -2.5 -50.4474 -0.2
      vertex 2.5 -44.9211 -0.2
      vertex 2.5 -50.4474 -0.2
    endloop
  endfacet
  facet normal -0 0 -1
    outer loop
      vertex 2.5 -44.9211 -0.2
      vertex -2.5 -50.4474 -0.2
      vertex -2.5 -44.9211 -0.2
    endloop
  endfacet
  facet normal 0 0 -1
    outer loop
      vertex -2.5 -58.9737 -0.2
      vertex 2.5 -53.4474 -0.2
      vertex 2.5 -58.9737 -0.2
    endloop
  endfacet
  facet normal -0 0 -1
    outer loop
      vertex 2.5 -53.4474 -0.2
      vertex -2.5 -58.9737 -0.2
      vertex -2.5 -53.4474 -0.2
    endloop
  endfacet
  facet normal 0 0 -1
    outer loop
      vertex -2.5 -67.5 -0.2
      vertex 2.5 -61.9737 -0.2
      vertex 2.5 -67.5 -0.2
    endloop
  endfacet
  facet normal -0 0 -1
    outer loop
      vertex 2.5 -61.9737 -0.2
      vertex -2.5 -67.5 -0.2
      vertex -2.5 -61.9737 -0.2
    endloop
  endfacet
  facet normal 0 0 -1
    outer loop
      vertex 2.5 -67.5 -0.2
      vertex 10 -73 -0.2
      vertex 2.5 -70.5 -0.2
    endloop
  endfacet
  facet normal 0 0 -1
    outer loop
      vertex 10 -73 -0.2
      vertex -2.5 -70.5 -0.2
      vertex 2.5 -70.5 -0.2
    endloop
  endfacet
  facet normal 0 0 -1
    outer loop
      vertex -10 -73 -0.2
      vertex -2.5 -67.5 -0.2
      vertex -2.5 -70.5 -0.2
    endloop
  endfacet
  facet normal -0 0 -1
    outer loop
      vertex -2.5 -67.5 -0.2
      vertex -10 -73 -0.2
      vertex -2.5 -61.9737 -0.2
    endloop
  endfacet
  facet normal -0 0 -1
    outer loop
      vertex -2.5 -61.9737 -0.2
      vertex -10 -73 -0.2
      vertex -2.5 -58.9737 -0.2
    endloop
  endfacet
  facet normal -0 0 -1
    outer loop
      vertex -2.5 -58.9737 -0.2
      vertex -10 -73 -0.2
      vertex -2.5 -53.4474 -0.2
    endloop
  endfacet
  facet normal -0 0 -1
    outer loop
      vertex -2.5 -53.4474 -0.2
      vertex -10 -73 -0.2
      vertex -2.5 -50.4474 -0.2
    endloop
  endfacet
  facet normal -0 0 -1
    outer loop
      vertex -2.5 -50.4474 -0.2
      vertex -10 -73 -0.2
      vertex -2.5 -44.9211 -0.2
    endloop
  endfacet
  facet normal -0 0 -1
    outer loop
      vertex -2.5 -44.9211 -0.2
      vertex -10 -73 -0.2
      vertex -2.5 -41.9211 -0.2
    endloop
  endfacet
  facet normal -0 0 -1
    outer loop
      vertex -2.5 -41.9211 -0.2
      vertex -10 -73 -0.2
      vertex -2.5 -36.3947 -0.2
    endloop
  endfacet
  facet normal -0 0 -1
    outer loop
      vertex -2.5 -36.3947 -0.2
      vertex -10 -73 -0.2
      vertex -2.5 -33.3947 -0.2
    endloop
  endfacet
  facet normal -0 0 -1
    outer loop
      vertex -2.5 -33.3947 -0.2
      vertex -10 -73 -0.2
      vertex -2.5 -27.8684 -0.2
    endloop
  endfacet
  facet normal -0 0 -1
    outer loop
      vertex -2.5 -27.8684 -0.2
      vertex -10 -73 -0.2
      vertex -2.5 -24.8684 -0.2
    endloop
  endfacet
  facet normal -0 0 -1
    outer loop
      vertex -2.5 -24.8684 -0.2
      vertex -10 -73 -0.2
      vertex -2.5 -19.3421 -0.2
    endloop
  endfacet
  facet normal -0 0 -1
    outer loop
      vertex -2.5 -19.3421 -0.2
      vertex -10 -73 -0.2
      vertex -2.5 -16.3421 -0.2
    endloop
  endfacet
  facet normal -0 0 -1
    outer loop
      vertex -2.5 -16.3421 -0.2
      vertex -10 -73 -0.2
      vertex -2.5 -10.8158 -0.2
    endloop
  endfacet
  facet normal -0 0 -1
    outer loop
      vertex -2.5 -10.8158 -0.2
      vertex -10 -73 -0.2
      vertex -2.5 -7.81579 -0.2
    endloop
  endfacet
  facet normal -0 0 -1
    outer loop
      vertex -2.5 -7.81579 -0.2
      vertex -10 -73 -0.2
      vertex -2.5 -2.28947 -0.2
    endloop
  endfacet
  facet normal -0 0 -1
    outer loop
      vertex -2.5 -2.28947 -0.2
      vertex -10 -73 -0.2
      vertex -2.5 0.710526 -0.2
    endloop
  endfacet
  facet normal 0 0 -1
    outer loop
      vertex -10 73 -0.2
      vertex -2.5 0.710526 -0.2
      vertex -10 -73 -0.2
    endloop
  endfacet
  facet normal 0 0 -1
    outer loop
      vertex -2.5 0.710526 -0.2
      vertex -10 73 -0.2
      vertex -2.5 6.23684 -0.2
    endloop
  endfacet
  facet normal 0 0 -1
    outer loop
      vertex -2.5 6.23684 -0.2
      vertex -10 73 -0.2
      vertex -2.5 9.23684 -0.2
    endloop
  endfacet
  facet normal 0 0 -1
    outer loop
      vertex -2.5 9.23684 -0.2
      vertex -10 73 -0.2
      vertex -2.5 14.7632 -0.2
    endloop
  endfacet
  facet normal 0 0 -1
    outer loop
      vertex -2.5 14.7632 -0.2
      vertex -10 73 -0.2
      vertex -2.5 17.7632 -0.2
    endloop
  endfacet
  facet normal 0 0 -1
    outer loop
      vertex -2.5 17.7632 -0.2
      vertex -10 73 -0.2
      vertex -2.5 23.2895 -0.2
    endloop
  endfacet
  facet normal 0 0 -1
    outer loop
      vertex -2.5 23.2895 -0.2
      vertex -10 73 -0.2
      vertex -2.5 26.2895 -0.2
    endloop
  endfacet
  facet normal 0 0 -1
    outer loop
      vertex -2.5 26.2895 -0.2
      vertex -10 73 -0.2
      vertex -2.5 31.8158 -0.2
    endloop
  endfacet
  facet normal 0 0 -1
    outer loop
      vertex -2.5 31.8158 -0.2
      vertex -10 73 -0.2
      vertex -2.5 34.8158 -0.2
    endloop
  endfacet
  facet normal 0 0 -1
    outer loop
      vertex -2.5 34.8158 -0.2
      vertex -10 73 -0.2
      vertex -2.5 40.3421 -0.2
    endloop
  endfacet
  facet normal 0 0 -1
    outer loop
      vertex -2.5 40.3421 -0.2
      vertex -10 73 -0.2
      vertex -2.5 43.3421 -0.2
    endloop
  endfacet
  facet normal 0 0 -1
    outer loop
      vertex -2.5 43.3421 -0.2
      vertex -10 73 -0.2
      vertex -2.5 48.8684 -0.2
    endloop
  endfacet
  facet normal 0 0 -1
    outer loop
      vertex -2.5 48.8684 -0.2
      vertex -10 73 -0.2
      vertex -2.5 51.8684 -0.2
    endloop
  endfacet
  facet normal 0 0 -1
    outer loop
      vertex -2.5 51.8684 -0.2
      vertex -10 73 -0.2
      vertex -2.5 57.3947 -0.2
    endloop
  endfacet
  facet normal 0 0 -1
    outer loop
      vertex -2.5 57.3947 -0.2
      vertex -10 73 -0.2
      vertex -2.5 60.3947 -0.2
    endloop
  endfacet
  facet normal 0 0 -1
    outer loop
      vertex -2.5 60.3947 -0.2
      vertex -10 73 -0.2
      vertex -2.5 65.9211 -0.2
    endloop
  endfacet
  facet normal 0 0 -1
    outer loop
      vertex -10 -73 -0.2
      vertex -2.5 -70.5 -0.2
      vertex 10 -73 -0.2
    endloop
  endfacet
  facet normal 0 0 -1
    outer loop
      vertex 2.5 -61.9737 -0.2
      vertex 10 -73 -0.2
      vertex 2.5 -67.5 -0.2
    endloop
  endfacet
  facet normal 0 0 -1
    outer loop
      vertex 2.5 -58.9737 -0.2
      vertex 10 -73 -0.2
      vertex 2.5 -61.9737 -0.2
    endloop
  endfacet
  facet normal 0 0 -1
    outer loop
      vertex 2.5 -53.4474 -0.2
      vertex 10 -73 -0.2
      vertex 2.5 -58.9737 -0.2
    endloop
  endfacet
  facet normal 0 0 -1
    outer loop
      vertex 2.5 -50.4474 -0.2
      vertex 10 -73 -0.2
      vertex 2.5 -53.4474 -0.2
    endloop
  endfacet
  facet normal 0 0 -1
    outer loop
      vertex 2.5 -44.9211 -0.2
      vertex 10 -73 -0.2
      vertex 2.5 -50.4474 -0.2
    endloop
  endfacet
  facet normal 0 0 -1
    outer loop
      vertex 2.5 -41.9211 -0.2
      vertex 10 -73 -0.2
      vertex 2.5 -44.9211 -0.2
    endloop
  endfacet
  facet normal 0 0 -1
    outer loop
      vertex 2.5 -36.3947 -0.2
      vertex 10 -73 -0.2
      vertex 2.5 -41.9211 -0.2
    endloop
  endfacet
  facet normal 0 0 -1
    outer loop
      vertex 2.5 -33.3947 -0.2
      vertex 10 -73 -0.2
      vertex 2.5 -36.3947 -0.2
    endloop
  endfacet
  facet normal 0 0 -1
    outer loop
      vertex 2.5 -27.8684 -0.2
      vertex 10 -73 -0.2
      vertex 2.5 -33.3947 -0.2
    endloop
  endfacet
  facet normal 0 0 -1
    outer loop
      vertex 2.5 -24.8684 -0.2
      vertex 10 -73 -0.2
      vertex 2.5 -27.8684 -0.2
    endloop
  endfacet
  facet normal 0 0 -1
    outer loop
      vertex 2.5 -19.3421 -0.2
      vertex 10 -73 -0.2
      vertex 2.5 -24.8684 -0.2
    endloop
  endfacet
  facet normal 0 0 -1
    outer loop
      vertex 2.5 -16.3421 -0.2
      vertex 10 -73 -0.2
      vertex 2.5 -19.3421 -0.2
    endloop
  endfacet
  facet normal 0 0 -1
    outer loop
      vertex 2.5 -10.8158 -0.2
      vertex 10 -73 -0.2
      vertex 2.5 -16.3421 -0.2
    endloop
  endfacet
  facet normal 0 0 -1
    outer loop
      vertex 2.5 -7.81579 -0.2
      vertex 10 -73 -0.2
      vertex 2.5 -10.8158 -0.2
    endloop
  endfacet
  facet normal 0 0 -1
    outer loop
      vertex 2.5 -2.28947 -0.2
      vertex 10 -73 -0.2
      vertex 2.5 -7.81579 -0.2
    endloop
  endfacet
  facet normal 0 0 -1
    outer loop
      vertex 10 -73 -0.2
      vertex 2.5 -2.28947 -0.2
      vertex 10 73 -0.2
    endloop
  endfacet
  facet normal 0 0 -1
    outer loop
      vertex 2.5 0.710526 -0.2
      vertex 10 73 -0.2
      vertex 2.5 -2.28947 -0.2
    endloop
  endfacet
  facet normal 0 0 -1
    outer loop
      vertex 2.5 6.23684 -0.2
      vertex 10 73 -0.2
      vertex 2.5 0.710526 -0.2
    endloop
  endfacet
  facet normal 0 0 -1
    outer loop
      vertex 2.5 9.23684 -0.2
      vertex 10 73 -0.2
      vertex 2.5 6.23684 -0.2
    endloop
  endfacet
  facet normal 0 0 -1
    outer loop
      vertex 2.5 14.7632 -0.2
      vertex 10 73 -0.2
      vertex 2.5 9.23684 -0.2
    endloop
  endfacet
  facet normal 0 0 -1
    outer loop
      vertex 2.5 17.7632 -0.2
      vertex 10 73 -0.2
      vertex 2.5 14.7632 -0.2
    endloop
  endfacet
  facet normal 0 0 -1
    outer loop
      vertex 2.5 23.2895 -0.2
      vertex 10 73 -0.2
      vertex 2.5 17.7632 -0.2
    endloop
  endfacet
  facet normal 0 0 -1
    outer loop
      vertex 2.5 26.2895 -0.2
      vertex 10 73 -0.2
      vertex 2.5 23.2895 -0.2
    endloop
  endfacet
  facet normal 0 0 -1
    outer loop
      vertex 2.5 31.8158 -0.2
      vertex 10 73 -0.2
      vertex 2.5 26.2895 -0.2
    endloop
  endfacet
  facet normal 0 0 -1
    outer loop
      vertex 2.5 34.8158 -0.2
      vertex 10 73 -0.2
      vertex 2.5 31.8158 -0.2
    endloop
  endfacet
  facet normal 0 0 -1
    outer loop
      vertex 2.5 40.3421 -0.2
      vertex 10 73 -0.2
      vertex 2.5 34.8158 -0.2
    endloop
  endfacet
  facet normal 0 0 -1
    outer loop
      vertex 2.5 43.3421 -0.2
      vertex 10 73 -0.2
      vertex 2.5 40.3421 -0.2
    endloop
  endfacet
  facet normal 0 0 -1
    outer loop
      vertex 2.5 48.8684 -0.2
      vertex 10 73 -0.2
      vertex 2.5 43.3421 -0.2
    endloop
  endfacet
  facet normal 0 0 -1
    outer loop
      vertex 2.5 51.8684 -0.2
      vertex 10 73 -0.2
      vertex 2.5 48.8684 -0.2
    endloop
  endfacet
  facet normal 0 0 -1
    outer loop
      vertex 2.5 57.3947 -0.2
      vertex 10 73 -0.2
      vertex 2.5 51.8684 -0.2
    endloop
  endfacet
  facet normal 0 0 -1
    outer loop
      vertex 2.5 60.3947 -0.2
      vertex 10 73 -0.2
      vertex 2.5 57.3947 -0.2
    endloop
  endfacet
  facet normal 0 0 -1
    outer loop
      vertex 2.5 65.9211 -0.2
      vertex 10 73 -0.2
      vertex 2.5 60.3947 -0.2
    endloop
  endfacet
  facet normal 0 0 -1
    outer loop
      vertex 2.5 68.9211 -0.2
      vertex 10 73 -0.2
      vertex 2.5 65.9211 -0.2
    endloop
  endfacet
  facet normal 0 0 -1
    outer loop
      vertex -2.5 68.9211 -0.2
      vertex 10 73 -0.2
      vertex 2.5 68.9211 -0.2
    endloop
  endfacet
  facet normal 0 0 -1
    outer loop
      vertex -2.5 68.9211 -0.2
      vertex -10 73 -0.2
      vertex 10 73 -0.2
    endloop
  endfacet
  facet normal 0 0 -1
    outer loop
      vertex -2.5 65.9211 -0.2
      vertex -10 73 -0.2
      vertex -2.5 68.9211 -0.2
    endloop
  endfacet
  facet normal -1 0 0
    outer loop
      vertex -10 -73 -0.2
      vertex -10 73 0.2
      vertex -10 73 -0.2
    endloop
  endfacet
  facet normal -1 -0 0
    outer loop
      vertex -10 73 0.2
      vertex -10 -73 -0.2
      vertex -10 -73 0.2
    endloop
  endfacet
  facet normal 0 1 -0
    outer loop
      vertex 10 73 -0.2
      vertex -10 73 0.2
      vertex 10 73 0.2
    endloop
  endfacet
  facet normal 0 1 0
    outer loop
      vertex -10 73 0.2
      vertex 10 73 -0.2
      vertex -10 73 -0.2
    endloop
  endfacet
  facet normal 0 -1 0
    outer loop
      vertex -10 -73 -0.2
      vertex 10 -73 0.2
      vertex -10 -73 0.2
    endloop
  endfacet
  facet normal 0 -1 -0
    outer loop
      vertex 10 -73 0.2
      vertex -10 -73 -0.2
      vertex 10 -73 -0.2
    endloop
  endfacet
endsolid OpenSCAD_Model
